<?xml version="1.0" standalone="no"?>
<!DOCTYPE svg PUBLIC "-//W3C//DTD SVG 20010904//EN"
 "http://www.w3.org/TR/2001/REC-SVG-20010904/DTD/svg10.dtd">
<svg version="1.0" xmlns="http://www.w3.org/2000/svg"
 width="70.000000pt" height="70.000000pt" viewBox="0 0 70.000000 70.000000"
 preserveAspectRatio="xMidYMid meet">
<metadata>
Created by potrace 1.11, written by Peter Selinger 2001-2013
</metadata>
<g transform="translate(0.000000,70.000000) scale(0.100000,-0.100000)"
fill="#000000" stroke="none">
<path d="M400 665 c-11 -12 -20 -24 -20 -28 0 -3 -13 -26 -30 -50 -16 -25 -30
-50 -30 -56 0 -6 -4 -11 -10 -11 -5 0 -10 -4 -10 -10 0 -5 -24 -49 -52 -97
-29 -48 -58 -97 -65 -108 -6 -11 -20 -36 -29 -55 -10 -19 -21 -37 -25 -40 -3
-3 -19 -29 -34 -58 -15 -29 -31 -55 -36 -58 -5 -3 -9 -13 -9 -22 0 -14 11 -17
70 -17 38 1 71 3 73 5 2 3 18 32 36 66 l32 60 75 -1 c58 -1 78 2 85 14 9 13
10 13 5 -3 -5 -14 -2 -17 10 -12 8 3 26 3 38 0 19 -4 22 -12 21 -50 0 -36 3
-44 17 -44 10 0 18 -5 18 -11 0 -5 -4 -7 -10 -4 -5 3 -10 0 -10 -7 0 -10 19
-13 72 -11 94 2 90 1 82 15 -4 7 -9 24 -10 38 -2 34 -13 103 -30 200 -4 19 -8
44 -9 55 -2 11 -6 34 -9 50 -3 17 -8 48 -11 70 -4 22 -9 54 -12 70 -6 35 -12
71 -17 100 -2 11 -4 22 -5 25 0 3 -33 5 -71 5 -59 0 -74 -3 -90 -20z m54 -190
c3 -27 8 -61 10 -75 3 -14 7 -42 9 -62 4 -36 4 -37 -29 -34 -19 1 -34 -1 -34
-6 0 -5 -9 -4 -19 2 -13 6 -22 7 -26 0 -4 -6 -11 -5 -19 3 -11 9 -11 17 -3 32
6 11 10 23 9 28 -1 4 2 7 6 7 5 0 26 36 48 79 21 44 40 79 41 78 0 -1 4 -24 7
-52z"/>
</g>
</svg>
